<svg width="22" height="23" viewBox="0 0 22 23" fill="none" xmlns="http://www.w3.org/2000/svg">
<path fill-rule="evenodd" clip-rule="evenodd" d="M10.9908 2.2124C16.06 2.2124 20.1666 6.31907 20.1666 11.3791C20.1666 16.4391 16.06 20.5457 10.9908 20.5457C5.93081 20.5457 1.83331 16.4391 1.83331 11.3791C1.83331 6.31907 5.93081 2.2124 10.9908 2.2124ZM11 4.04574C6.94831 4.04574 3.66665 7.3274 3.66665 11.3791C3.66665 15.4307 6.94831 18.7124 11 18.7124C15.0516 18.7124 18.3333 15.4307 18.3333 11.3791C18.3333 7.3274 15.0516 4.04574 11 4.04574ZM11.4583 6.79574V11.6082L15.5833 14.0557L14.8958 15.1832L10.0833 12.2957V6.79574H11.4583Z" fill="black"/>
</svg>
