<svg xmlns="http://www.w3.org/2000/svg" height="24" viewBox="0 96 960 960" width="24"><path d="M620 316q-33 0-56.5-23.5T540 236q0-33 23.5-56.5T620 156q33 0 56.5 23.5T700 236q0 33-23.5 56.5T620 316ZM432 516l88 92v248h-80V656L312 544q-14-12-19-25t-5-31q0-18 5.5-30.5T312 432l112-112q13-13 27.5-18.5T484 296q18 0 32.5 5.5T544 320l76 76q27 27 63 43.5t81 16.5v80q-63 0-114-22.5T560 452l-32-32-96 96Zm-232 60q85 0 142.5 57.5T400 776q0 85-57.5 142.5T200 976q-85 0-142.5-57.5T0 776q0-85 57.5-142.5T200 576Zm0 340q57 0 98.5-41.5T340 776q0-57-41.5-98.5T200 636q-57 0-98.5 41.5T60 776q0 57 41.5 98.5T200 916Zm560-340q85 0 142.5 57.5T960 776q0 85-57.5 142.5T760 976q-85 0-142.5-57.5T560 776q0-85 57.5-142.5T760 576Zm0 340q57 0 98.5-41.5T900 776q0-57-41.5-98.5T760 636q-57 0-98.5 41.5T620 776q0 57 41.5 98.5T760 916Z"/></svg>