<svg xmlns="http://www.w3.org/2000/svg" height="24" viewBox="0 96 960 960" width="24"><path d="M240 936q-17 0-28.5-11.5T200 896v-82q-18-20-29-44.5T160 716V336q0-83 77-121.5T480 176q172 0 246 37t74 123v380q0 29-11 53.5T760 814v82q0 17-11.5 28.5T720 936h-40q-17 0-28.5-11.5T640 896v-40H320v40q0 17-11.5 28.5T280 936h-40Zm242-640h224-448 224Zm158 280H240h480-80Zm-400-80h480V376H240v120Zm100 240q25 0 42.5-17.5T400 676q0-25-17.5-42.5T340 616q-25 0-42.5 17.5T280 676q0 25 17.5 42.5T340 736Zm280 0q25 0 42.5-17.5T680 676q0-25-17.5-42.5T620 616q-25 0-42.5 17.5T560 676q0 25 17.5 42.5T620 736ZM258 296h448q-15-17-64.5-28.5T482 256q-107 0-156.5 12.5T258 296Zm62 480h320q33 0 56.5-23.5T720 696V576H240v120q0 33 23.5 56.5T320 776Z"/></svg>