<?xml version="1.0" encoding="UTF-8"?>
<!DOCTYPE svg PUBLIC "-//W3C//DTD SVG 1.1//EN" "http://www.w3.org/Graphics/SVG/1.1/DTD/svg11.dtd">
<svg xmlns="http://www.w3.org/2000/svg" version="1.1" width="3333px" height="3333px" style="shape-rendering:geometricPrecision; text-rendering:geometricPrecision; image-rendering:optimizeQuality; fill-rule:evenodd; clip-rule:evenodd" xmlns:xlink="http://www.w3.org/1999/xlink">
<g><path style="opacity:0.998" fill="#b50000" d="M 1636.5,274.5 C 1873.01,270.172 2076.68,348.672 2247.5,510C 2413,675.35 2497,875.683 2499.5,1111C 2497.66,1329.63 2423.5,1519.13 2277,1679.5C 2148.27,1814.47 1991.44,1898.14 1806.5,1930.5C 1805.99,2265.52 1805.16,2600.52 1804,2935.5C 1792.05,2999.11 1754.55,3038.28 1691.5,3053C 1629.11,3061.38 1580.61,3039.55 1546,2987.5C 1536.58,2971.34 1530.58,2954 1528,2935.5C 1526.84,2600.52 1526.01,2265.52 1525.5,1930.5C 1300.24,1888.36 1120.4,1775.36 986,1591.5C 868.446,1422.31 818.446,1234.64 836,1028.5C 860.637,804.361 957.471,618.861 1126.5,472C 1273.86,349.21 1443.86,283.376 1636.5,274.5 Z"/></g>
<g><path style="opacity:1" fill="#fe8900" d="M 1632.5,555.5 C 1812.52,549.52 1963.02,612.52 2084,744.5C 2204.24,888.145 2245.24,1052.15 2207,1236.5C 2168.15,1390.16 2081.32,1508 1946.5,1590C 1824.15,1659.11 1693.82,1680.78 1555.5,1655C 1397.93,1620 1276.43,1534.5 1191,1398.5C 1125.22,1287.55 1099.89,1167.88 1115,1039.5C 1138.43,882.236 1213.27,756.07 1339.5,661C 1427.19,598.38 1524.85,563.214 1632.5,555.5 Z"/></g>
<g><path style="opacity:1" fill="#000000" d="M 1645.5,832.5 C 1741.82,828.927 1820.98,863.593 1883,936.5C 1948.43,1024.2 1961.1,1119.2 1921,1221.5C 1883.96,1301.53 1823.13,1354.03 1738.5,1379C 1630.11,1403.97 1537.28,1376.81 1460,1297.5C 1394.19,1219.92 1373.86,1131.58 1399,1032.5C 1433.42,928.411 1503.92,863.578 1610.5,838C 1622.28,835.939 1633.94,834.105 1645.5,832.5 Z"/></g>
</svg>
