<svg xmlns="http://www.w3.org/2000/svg" height="24" viewBox="0 96 960 960" width="24"><path d="M480 816q26 0 43-17t17-43q0-26-17-43t-43-17q-26 0-43 17t-17 43q0 26 17 43t43 17Zm0-180q26 0 43-17t17-43q0-26-17-43t-43-17q-26 0-43 17t-17 43q0 26 17 43t43 17Zm0-180q26 0 43-17t17-43q0-26-17-43t-43-17q-26 0-43 17t-17 43q0 26 17 43t43 17ZM280 696v-46q-51-14-85.5-56T160 496h120v-46q-51-14-85.5-56T160 296h120q0-33 23.5-56.5T360 216h240q33 0 56.5 23.5T680 296h120q0 56-34.5 98T680 450v46h120q0 56-34.5 98T680 650v46h120q0 56-34.5 98T680 850v6q0 33-23.5 56.5T600 936H360q-33 0-56.5-23.5T280 856v-6q-51-14-85.5-56T160 696h120Zm80 160h240V296H360v560Zm0 0V296v560Z"/></svg>